<svg width="36" height="34" viewBox="0 0 36 34" fill="none" xmlns="http://www.w3.org/2000/svg">
<path d="M35.7829 16.8175C35.7829 26.1099 27.9657 33.6429 18.3226 33.6429C8.67955 33.6429 0.862305 26.1099 0.862305 16.8175C0.862305 7.52505 8.67955 -0.00793648 18.3226 -0.00793648C27.9657 -0.00793648 35.7829 7.52505 35.7829 16.8175Z" fill="white"/>
<path fill-rule="evenodd" clip-rule="evenodd" d="M18.3226 31.1032C26.6526 31.1032 33.2433 24.6194 33.2433 16.8175C33.2433 9.01552 26.6526 2.53175 18.3226 2.53175C9.99269 2.53175 3.40199 9.01552 3.40199 16.8175C3.40199 24.6194 9.99269 31.1032 18.3226 31.1032ZM18.3226 33.6429C27.9657 33.6429 35.7829 26.1099 35.7829 16.8175C35.7829 7.52505 27.9657 -0.00793648 18.3226 -0.00793648C8.67955 -0.00793648 0.862305 7.52505 0.862305 16.8175C0.862305 26.1099 8.67955 33.6429 18.3226 33.6429Z" fill="black"/>
<path d="M30.0687 16.8175C30.0687 23.3046 24.8098 28.5635 18.3227 28.5635C11.8355 28.5635 6.57666 23.3046 6.57666 16.8175C6.57666 10.3303 11.8355 5.07143 18.3227 5.07143C24.8098 5.07143 30.0687 10.3303 30.0687 16.8175Z" fill="white"/>
<path fill-rule="evenodd" clip-rule="evenodd" d="M18.3227 26.0238C23.4072 26.0238 27.529 21.902 27.529 16.8175C27.529 11.7329 23.4072 7.61111 18.3227 7.61111C13.2382 7.61111 9.11634 11.7329 9.11634 16.8175C9.11634 21.902 13.2382 26.0238 18.3227 26.0238ZM18.3227 28.5635C24.8098 28.5635 30.0687 23.3046 30.0687 16.8175C30.0687 10.3303 24.8098 5.07143 18.3227 5.07143C11.8355 5.07143 6.57666 10.3303 6.57666 16.8175C6.57666 23.3046 11.8355 28.5635 18.3227 28.5635Z" fill="black"/>
</svg>
